/* XPM */
static char * gcalendar_xpm[] = {
"16 16 59 1",
" 	c None",
".	c #A0B4B2",
"+	c #A0B5B2",
"@	c #9FB5B2",
"#	c #9FB4B2",
"$	c #9FB5B1",
"%	c #A0B5B1",
"&	c #9FB4B1",
"*	c #A0B4B1",
"=	c #9DB1AD",
"-	c #6CC1F4",
";	c #9DB0AD",
">	c #98AAA8",
",	c #0B7FE4",
"'	c #6FCCF4",
")	c #6ECDF4",
"!	c #0CA5FF",
"~	c #6ECEF4",
"{	c #0882F2",
"]	c #0A7CEB",
"^	c #98ABA8",
"/	c #94A5A2",
"(	c #087CF9",
"_	c #94A4A2",
":	c #909E9A",
"<	c #FEFEFF",
"[	c #909E9B",
"}	c #8B9794",
"|	c #FFFFFF",
"1	c #B9C5CD",
"2	c #8A9794",
"3	c #86908D",
"4	c #FCFDFF",
"5	c #FCFEFF",
"6	c #D08389",
"7	c #FF3F3F",
"8	c #EE3133",
"9	c #FFAAAA",
"0	c #86908C",
"a	c #808986",
"b	c #F8FAFF",
"c	c #CA949A",
"d	c #818985",
"e	c #7B827F",
"f	c #F4F8FE",
"g	c #FFC0C0",
"h	c #777B77",
"i	c #F0F5FE",
"j	c #767B77",
"k	c #737671",
"l	c #EBF4FD",
"m	c #737572",
"n	c #6F706C",
"o	c #E8F1FD",
"p	c #6E706C",
"q	c #6B6C67",
"r	c #E6F0FD",
"s	c #E5F0FD",
"t	c #696864",
"                ",
" .+@#$#%.#&*%%  ",
"=-------------; ",
">,')!~{{{{{{{]^ ",
"/(((((((((((((_ ",
":<<<<<<<<<<<<<[ ",
"}<|<<<1111111<2 ",
"3454441|6789140 ",
"ab1111118cc81bd ",
"ef1|1|1|8gc71fe ",
"hi11111168861ij ",
"kl1|1|1|1|1lllm ",
"no111111111ooop ",
"qrsrrrrrrrrrrrq ",
"ttttttttttttttt ",
"                "};
