/* XPM */
static char * googlereader_xpm[] = {
"16 16 26 1",
" 	c None",
".	c #9FA2CC",
"+	c #9396BB",
"@	c #B5B8E7",
"#	c #EBECFE",
"$	c #FFFFFF",
"%	c #DDDEF7",
"&	c #CDD1FC",
"*	c #C5C9F9",
"=	c #BDC2F7",
"-	c #8489BC",
";	c #B5BAF8",
">	c #A7ACE8",
",	c #7478AA",
"'	c #A9ACCC",
")	c #7379B9",
"!	c #C4C6E9",
"~	c #AFB4F0",
"{	c #7E82AD",
"]	c #6B70A6",
"^	c #6368A5",
"/	c #9EA5F4",
"(	c #9499CD",
"_	c #A4ABF8",
":	c #939AF1",
"<	c #6E74B9",
" .++++++++      ",
".@#$$%&*=@-     ",
".&&%#$#;@>,'''' ",
".=;;;;#$*@)%%%!'",
".~#$$~~#$~-$%**.",
".;*{{,-,]),^$%*.",
".=->#$#%;;;'^$*'",
".&-=*&#$$*~/^$%(",
".%-~//_;#$=/^$%'",
"(~-/%$$;/#$>^%$'",
" (-/;*%$;;$=^%#'",
"  -~::/#$/#%]=@'",
"  -*$#:=$:%#^'' ",
"  -*$$:=#_=%]   ",
"  -/;@/::::.]   ",
"   )<<)<<)),    "};
