/* XPM */
static char * groups_xpm[] = {
"16 16 93 2",
"  	c None",
". 	c #6198C4",
"+ 	c #84AED1",
"@ 	c #C2D5E7",
"# 	c #EAF0F7",
"$ 	c #F7F9FC",
"% 	c #F2F5FA",
"& 	c #D4E1EE",
"* 	c #95B9D7",
"= 	c #FDFDFE",
"- 	c #FFFFFF",
"; 	c #FEFEFE",
"> 	c #F9FAFC",
", 	c #FAFBFD",
"' 	c #CADBEB",
") 	c #6A9EC7",
"! 	c #8CB3D4",
"~ 	c #F3F5FA",
"{ 	c #FEFFFF",
"] 	c #B7CEE4",
"^ 	c #C1D5E8",
"/ 	c #FEFEFF",
"( 	c #9DA0A2",
"_ 	c #888C8D",
": 	c #9A9DA0",
"< 	c #F8FAFC",
"[ 	c #F1F4F9",
"} 	c #ECF0F7",
"| 	c #CCDCEC",
"1 	c #FCFDFE",
"2 	c #FBFCFD",
"3 	c #72A3CA",
"4 	c #F4F6FA",
"5 	c #9C9FA1",
"6 	c #F5F7FA",
"7 	c #9EA1A2",
"8 	c #F2F5F9",
"9 	c #E4EAF4",
"0 	c #7BA8CE",
"a 	c #EDF1F8",
"b 	c #F8F9FC",
"c 	c #F9FBFD",
"d 	c #F6F8FB",
"e 	c #F0F3F9",
"f 	c #A6C4DE",
"g 	c #7CA8CE",
"h 	c #778A9B",
"i 	c #909AA5",
"j 	c #E7EEF5",
"k 	c #F5F7FB",
"l 	c #F7F8FB",
"m 	c #B1CBE1",
"n 	c #A5C0DC",
"o 	c #EAEEF6",
"p 	c #E5E5E5",
"q 	c #B2B2B2",
"r 	c #7A8E9D",
"s 	c #9FBFD8",
"t 	c #CFDFED",
"u 	c #ECF2F8",
"v 	c #EDF2F8",
"w 	c #E3EBF4",
"x 	c #C3D6E8",
"y 	c #6A9DC7",
"z 	c #689CC6",
"A 	c #E3E9F3",
"B 	c #DFE1E2",
"C 	c #ACADAF",
"D 	c #979FA8",
"E 	c #8491A0",
"F 	c #7E8C9D",
"G 	c #5C91BB",
"H 	c #B0CAE1",
"I 	c #E6EEF5",
"J 	c #DDE4F1",
"K 	c #E9EEF6",
"L 	c #D8DADD",
"M 	c #C3C7CE",
"N 	c #B6BCC6",
"O 	c #BBC6D8",
"P 	c #8AB0D2",
"Q 	c #D5DDED",
"R 	c #E2E8F3",
"S 	c #ECEFF7",
"T 	c #EDF0F7",
"U 	c #D1DCEC",
"V 	c #8BB0D3",
"W 	c #83ACD0",
"X 	c #C2D3E7",
"Y 	c #A1C0DB",
"Z 	c #A2C0DB",
"` 	c #90B5D5",
" .	c #689DC7",
"                                ",
"            . . . . . . .       ",
"        . + @ # $ $ % & * .     ",
"      . * % = - - - ; > , ' )   ",
"      ! ~ - - - - - { = - % ] . ",
"    . ^ / - ( _ _ _ _ : < [ } . ",
"    . | - - = 1 { - / 2 $ % } 3 ",
"    . ] 4 1 5 _ _ 6 7 _ $ 8 9 . ",
"    . 0 a ~ b 2 = = 1 c d e f . ",
"  . g h i j k b , , > l ~ m .   ",
". n o p q r s t u v w % x y     ",
"z A - = B C D E F G ) H I * .   ",
". J k K k L M N O .   . . .     ",
". P Q R S T 9 U V .             ",
"  W [ X Y Z `  ..               ",
". . . . . .                     "};
